# xmcd
#
# Track frame offsets:
#	150
#	22009
#	54210
#
# Disc length: 1121 seconds
#
# Revision: 0
# Processed by: cddbd v1.5.2PL0 Copyright (c) Steve Scherf et al.
# Submitted via: VUPlayer 2.45
#
DISCID=1b045f03
DTITLE=הדג נחש - לא מוותר (עם מזי כהן)
DYEAR=2000
DGENRE=Hip Hop
TTITLE0=לא מוותר (Radio Edit 118bpm)
TTITLE1=לא מוותר (Remix - Liqueur Sabra 115bpm)
TTITLE2=לא מוותר
EXTD=
EXTT0=עם מזי כהן
EXTT1=עם מזי כהן
EXTT2=עם מזי כהן\n(Album Version 118bpm)
PLAYORDER=
